<?xml version="1.0" encoding="utf-8"?>
<!-- Generator: Adobe Illustrator 24.2.3, SVG Export Plug-In . SVG Version: 6.00 Build 0)  -->
<svg version="1.1" xmlns="http://www.w3.org/2000/svg" xmlns:xlink="http://www.w3.org/1999/xlink" x="0px" y="0px"
	 viewBox="0 0 2953.86 2666.67" style="enable-background:new 0 0 2953.86 2666.67;" xml:space="preserve">
<style type="text/css">
	.st0{fill:#D9E7FF;}
	.st1{fill:#E8EEFA;}
	.st2{fill:#142B6B;}
	.st3{fill:#879FD4;}
	.st4{fill:#91ABE3;}
	.st5{fill:#ADC1F0;}
	.st6{fill:#3B57B3;}
	.st7{fill:#2E4DA3;}
	.st8{fill:#FFFFFF;}
	.st9{fill:#223B82;}
	.st10{fill:#3457B8;}
	.st11{fill:none;stroke:#FFFFFF;stroke-width:2.7704;stroke-linecap:round;stroke-linejoin:round;stroke-miterlimit:10;}
	.st12{fill:#6F8BE8;}
	.st13{fill:#032F45;}
	.st14{fill:#F0B037;}
	.st15{fill:#FFD482;}
	.st16{fill:#F2C97B;}
	.st17{fill:none;stroke:#FFD482;stroke-width:4.2446;stroke-linecap:round;stroke-linejoin:round;stroke-miterlimit:10;}
	.st18{fill:#5981EB;}
	.st19{fill:#FFFCFA;}
	.st20{fill:#20377A;}
	.st21{fill:#ED5353;}
	.st22{fill:#A7BBE6;}
	.st23{fill:#F0A548;}
	.st24{fill:#C6D2F2;}
	.st25{fill:#FFBA63;}
	.st26{fill:#2B4796;}
	.st27{fill:none;stroke:#142B6B;stroke-width:2.6667;stroke-linecap:round;stroke-linejoin:round;stroke-miterlimit:10;}
	.st28{fill:#E0A533;}
</style>
<g id="background">
</g>
<g id="image">
	<path class="st0" d="M846.22,1148.46c0,0-104.04-498.95,326.97-632.43c373.54-115.68,359.08-264.63,656.33-208.89
		c297.24,55.73,294.38,384.73,588.15,525.27c241.41,115.49,476.86,979.43-186.17,1026.18
		C1818.27,1887.72,846.22,1148.46,846.22,1148.46z"/>
	<g>
		<path class="st1" d="M757.99,1681.88c-4.09-23.53-43.11-38.76-87.17-34.01c-2.94,0.32-5.82,0.73-8.65,1.2
			c-21.53-8.86-50.36-12.73-81.01-9.42c-59.52,6.41-103.3,37.38-97.78,69.16c5.44,31.32,56.72,51.73,115.16,46.19
			c12.94,16.45,45.58,25.94,81.61,22.06c44.06-4.74,76.46-27.66,72.38-51.19c-0.95-5.45-3.84-10.43-8.16-14.84
			C754.54,1702.41,759.79,1692.2,757.99,1681.88z"/>
		<g>
			<g>
				<g>
					<path class="st2" d="M586.01,1575.9c60.49-2.29,103.56-76.49,101.14-131.52c-0.9-20.56-32.99-20.68-32.08,0
						c0.89,20.2,16.43,37.62,5.12,54.66c-11.83,17.82-26.03,58.45-73.14,55.91C566.49,1553.84,565.33,1576.68,586.01,1575.9
						L586.01,1575.9z"/>
				</g>
			</g>
		</g>
		<path class="st2" d="M571.85,1739.35L571.85,1739.35c-6.81,0-12.37-6.83-12.37-15.18v-209.95c0-8.35,5.57-15.18,12.37-15.18h0
			c6.81,0,12.37,6.83,12.37,15.18v209.95C584.23,1732.52,578.66,1739.35,571.85,1739.35z"/>
		
			<ellipse transform="matrix(0.9949 -0.101 0.101 0.9949 -126.6935 63.0167)" class="st3" cx="558.79" cy="1282.31" rx="129.95" ry="113.93"/>
		
			<ellipse transform="matrix(0.9949 -0.101 0.101 0.9949 -139.0019 67.432)" class="st3" cx="596.23" cy="1406.03" rx="129.95" ry="113.93"/>
		<path class="st3" d="M581.72,1364.56c0,46.64-43.12,84.44-96.31,84.44c-53.19,0-96.31-37.81-96.31-84.44
			c0-46.64,61.38-82.91,114.57-82.91S581.72,1317.93,581.72,1364.56z"/>
		<path class="st3" d="M654.7,1237.45c31.78-0.76,68.95,27.33,69.82,63.58c0.87,36.25-27.44,73.44-59.22,74.2
			c-31.78,0.76-58.24-28-59.11-64.25C605.33,1274.73,622.92,1238.21,654.7,1237.45z"/>
		
			<ellipse transform="matrix(0.2437 -0.9699 0.9699 0.2437 -807.9906 1495.0929)" class="st4" cx="554.61" cy="1265.6" rx="56.13" ry="84.16"/>
		
			<ellipse transform="matrix(0.1796 -0.9837 0.9837 0.1796 -946.9539 1595.1415)" class="st4" cx="482.91" cy="1365.33" rx="32.87" ry="49.28"/>
	</g>
	<path class="st0" d="M1479.3,2292.54l506.7,16.5c68.67,2.24,136.52-15.44,195.37-50.9l402.4-242.45
		c40.71-24.53,39.64-83.92-1.93-106.96l-382.23-211.87L1479.3,2292.54z"/>
	<polygon class="st5" points="742.18,1846.91 742.18,1228 984.89,1085.14 1087.96,1098.7 1479.3,1485.1 1479.3,2272.2 
		1338.09,2190.67 1338.09,2190.96 	"/>
	<polygon class="st0" points="1479.3,1485.85 1578.99,1428.3 1578.99,1426.22 1587.44,1423.42 1993.63,1309.33 2014.39,1289.1 
		2244.2,1338.99 2235.14,1836.54 1654.89,2171.55 1654.89,2170.83 1479.3,2272.2 	"/>
	<polygon class="st6" points="1803.49,691.87 2244.2,1309.33 1487.28,1737.09 1054.33,1098.43 	"/>
	<polygon class="st7" points="1054.33,1098.43 627.27,1277.72 817.93,1153.1 1522.11,789.33 1803.49,691.87 	"/>
	<polygon class="st8" points="2244.2,1309.33 2244.2,1338.99 1486.72,1763.79 1487.13,1737.11 	"/>
	<polygon class="st8" points="1486.72,1763.79 1054.33,1136.65 1054.33,1098.43 1487.28,1737.09 	"/>
	<polygon class="st8" points="1054.33,1136.65 627.27,1309.33 627.27,1277.72 1054.33,1098.43 	"/>
	<g>
		<polygon class="st2" points="918.52,1715.68 787.73,1640.16 787.73,1428.93 918.52,1504.44 		"/>
		<polygon class="st8" points="918.52,1715.68 918.52,1504.45 810.57,1442.12 810.57,1653.35 		"/>
		<polygon class="st2" points="918.51,1685.86 918.51,1526.4 837.01,1479.34 837.01,1638.81 		"/>
	</g>
	<g>
		<polygon class="st2" points="1370.89,1953.95 1240.1,1878.43 1240.1,1667.2 1370.89,1742.71 		"/>
		<polygon class="st8" points="1370.89,1953.95 1370.89,1742.72 1262.94,1680.39 1262.94,1891.62 		"/>
		<polygon class="st2" points="1370.88,1924.13 1370.88,1764.66 1289.39,1717.61 1289.39,1877.07 		"/>
	</g>
	<g>
		<polygon class="st9" points="1672.7,1946.91 1803.49,1871.4 1803.49,1660.16 1672.7,1735.68 		"/>
		<polygon class="st8" points="1672.7,1946.91 1672.7,1735.68 1780.65,1673.35 1780.65,1884.58 		"/>
		<polygon class="st9" points="1672.71,1917.09 1672.71,1757.63 1754.21,1710.58 1754.21,1870.04 		"/>
	</g>
	<g>
		<polygon class="st9" points="1960.41,1786.32 2091.21,1710.81 2091.21,1499.57 1960.41,1575.09 		"/>
		<polygon class="st8" points="1960.41,1786.32 1960.41,1575.09 2068.37,1512.77 2068.37,1724 		"/>
		<polygon class="st9" points="1960.42,1756.5 1960.42,1597.04 2041.92,1549.99 2041.92,1709.45 		"/>
	</g>
	<polygon class="st2" points="1479.3,2292.54 1479.3,2208.59 741.79,1783.24 741.79,1867.05 	"/>
	<polygon class="st9" points="1479.3,2292.54 1479.3,2208.59 2236.31,1771.99 2231.49,1858.58 	"/>
	<g>
		<polygon class="st2" points="989.22,1526.13 989.22,1942.66 1141.23,2030.42 1141.23,2030.08 1177.48,2051.01 1177.48,1634.48 		
			"/>
		<polygon class="st8" points="1041.23,1972.68 1141.23,2030.42 1141.23,2030.08 1177.48,2051.01 1177.48,1634.48 1041.23,1556.06 
					"/>
		<polygon class="st2" points="1163.85,1763.79 1073.77,1711.78 1073.77,1612 1163.85,1664.01 		"/>
		<path class="st2" d="M1056.43,1802.62L1056.43,1802.62c-3.58-1.97-6.5-6.51-6.5-10.09v-28.67c0-3.58,2.93-4.89,6.5-2.91l0,0
			c3.58,1.97,6.5,6.51,6.5,10.09v28.67C1062.93,1803.28,1060.01,1804.59,1056.43,1802.62z"/>
		<polygon class="st2" points="768.34,1978.92 768.34,2058.02 1138.86,2271.94 1295.21,2181.67 1295.21,2102.57 		"/>
		<polygon class="st10" points="1295.21,2102.57 924.69,1888.65 768.34,1978.92 1138.86,2192.84 		"/>
	</g>
	<polygon class="st0" points="1138.86,2271.94 1479.3,2292.54 1295.21,2181.67 	"/>
	<line class="st11" x1="741.79" y1="1272.09" x2="741.79" y2="1783.24"/>
	<path class="st12" d="M1512.63,1360.93l390.75-215.57c15.42-8.51,11.71-25.24-8.25-37.19l0,0c-19.96-11.95-48.9-14.76-64.33-6.25
		l-390.75,215.57c-15.42,8.51-11.71,25.24,8.25,37.19h0C1468.26,1366.63,1497.21,1369.44,1512.63,1360.93z"/>
	<path class="st13" d="M1549.59,1385.93l390.75-215.57c15.42-8.51,11.71-25.24-8.25-37.19l0,0c-19.96-11.95-48.9-14.76-64.33-6.25
		l-390.75,215.57c-15.42,8.51-11.71,25.24,8.25,37.19v0C1505.22,1391.62,1534.17,1394.43,1549.59,1385.93z"/>
	<g>
		<g>
			<g>
				<path class="st14" d="M1561.27,1254.75c-9.67-3.42-72.61-44.24-79.83-52.96c-25.75-23.51-40.21-61.67-37.83-110.5
					c5.23-107.15,89.43-224.9,188.06-263c45.97-17.76,82.98-20.39,115.56-1.99c18.14,9.12,67.21,37.07,67.21,37.07
					c9.05,8.77-8.61,12.71-2.81,25.09c12.77,22.3,19.3,51.06,17.64,85.03c-5.23,107.15-89.43,224.9-188.06,263
					C1599.67,1252.52,1590.34,1268.87,1561.27,1254.75z"/>
				
					<ellipse transform="matrix(0.5547 -0.8321 0.8321 0.5547 -129.6092 1873.3596)" class="st8" cx="1685.29" cy="1057.76" rx="233.22" ry="153.21"/>
				
					<ellipse transform="matrix(0.5547 -0.8321 0.8321 0.5547 -129.8901 1881.2458)" class="st15" cx="1692.51" cy="1061.97" rx="233.22" ry="153.21"/>
				
					<ellipse transform="matrix(0.5547 -0.8321 0.8321 0.5547 -129.8669 1885.0547)" class="st8" cx="1696.09" cy="1063.85" rx="163.04" ry="107.11"/>
				<path class="st16" d="M1811.46,1010.83c-4.29,77.67-64.5,161.42-134.49,187.05c-27.9,10.22-53.14,9.65-73.13,0.36
					c21.36,15.24,51.01,18.51,84.49,6.25c69.99-25.63,130.2-109.37,134.49-187.05c2.58-46.71-15.66-80.58-45.83-94.59
					C1800.27,939.47,1813.7,970.32,1811.46,1010.83z"/>
				<path class="st15" d="M1704.05,985.16c13.32-3.46,28.99-3.49,39.34,2.37l-15.21,28.33c-11.28-4.37-21.11-5.2-31.99-1.06
					c-12.69,4.82-18.52,12.27-18.85,22.88c-0.74,23.74,59.1,0.56,57.81,42.05c-0.7,22.59-14.33,43.26-35.77,55.73l-0.74,23.74
					l-21.98,8.35l0.72-23.28c-14.44,3.43-24.64,0.02-33.18-6.08l17.37-25.73c7.92,4.51,14.83,5.76,24.34,2.14
					c10.88-4.13,16.91-10.75,17.23-21.12c0.68-21.9-59.2,2.67-57.84-41.36c0.69-22.13,13.23-43.75,36.73-57.68l0.74-23.97
					l21.98-8.35L1704.05,985.16z"/>
			</g>
		</g>
		<line class="st17" x1="1548.53" y1="982.09" x2="1491.87" y2="949.8"/>
		<line class="st17" x1="1520.77" y1="1035.29" x2="1465.84" y2="1003.57"/>
		<line class="st17" x1="1504.26" y1="1091.58" x2="1449.33" y2="1059.87"/>
		<line class="st17" x1="1500.43" y1="1148.46" x2="1449.77" y2="1119.22"/>
		<line class="st17" x1="1513.63" y1="1204.53" x2="1462.88" y2="1173.65"/>
		<line class="st17" x1="1586.16" y1="931.42" x2="1531.46" y2="899.34"/>
		<line class="st17" x1="1630.38" y1="891.26" x2="1575.68" y2="859.17"/>
		<line class="st17" x1="1681.02" y1="861.61" x2="1630.58" y2="832.03"/>
		<line class="st17" x1="1738.81" y1="846.86" x2="1686.82" y2="817.95"/>
	</g>
	<path class="st18" d="M742.07,1780.67"/>
	<path class="st19" d="M2007.31,729.6c0.77-50.6-20.04-100.74-51.57-118.94c-4.98-2.88-9.98-4.78-14.91-5.82
		c-9.27-45.4-31.53-84.74-61.24-101.9c-30.37-17.54-61.03-7.56-82.01,21.88c-5.87-6.93-12.39-12.62-19.45-16.7
		c-31.53-18.2-65.54,20.37-45.77,62.74L2007.31,729.6z"/>
	<path class="st19" d="M1273.05,809.69c0.52-34.44-13.64-68.57-35.11-80.96c-3.39-1.96-6.79-3.25-10.15-3.96
		c-6.31-30.9-21.46-57.68-41.69-69.36c-20.67-11.94-41.54-5.14-55.82,14.89c-3.99-4.72-8.43-8.59-13.24-11.37
		c-21.46-12.39-44.61,13.87-31.15,42.71L1273.05,809.69z"/>
	<path class="st19" d="M2339.76,1116.99c0.52-34.44-13.64-68.57-35.11-80.96c-3.39-1.96-6.79-3.25-10.15-3.96
		c-6.31-30.9-21.46-57.68-41.69-69.36c-20.67-11.94-41.54-5.14-55.82,14.89c-3.99-4.72-8.43-8.59-13.24-11.37
		c-21.46-12.39-44.61,13.87-31.15,42.71L2339.76,1116.99z"/>
	<polygon class="st20" points="1138.86,2271.94 1138.86,2192.84 1295.21,2102.57 1295.21,2181.67 	"/>
	<g>
		<path class="st1" d="M364.67,2273.16c1.5-28.52,52.19-52.2,106.76-49.33c47.38,2.5,102.95,22.26,111.34,46.02
			c36.71-3.09,75.29,2.58,102.13,16.88c43.09,22.94,39.65,59.41-7.68,81.45c-47.33,22.04-120.63,21.31-163.72-1.63
			c-20.62-10.98-30.56-25.06-30.15-39.17c-0.15-0.01-0.3-0.01-0.45-0.02C428.33,2324.49,363.16,2301.69,364.67,2273.16z"/>
		<path class="st2" d="M513.17,2253.07l19.24,4.68c14.41-0.89,21.74-2.89,26.01,2.35l1.21,1.49c4.27,5.24,1.46,10.55-6.25,11.79
			l-35.16,11.17c-7.71,1.24-15.78-3.15-19.14-9.5c0,0-1.98-3.87,4.54-14.52C507.34,2254.47,507,2254.07,513.17,2253.07z"/>
		<path class="st21" d="M432.41,2113.12l-47.09,115.04c-5.44,14.14,12.77,15.93,18.16,8.15l64.2-145.61L432.41,2113.12z"/>
		<path class="st21" d="M503.36,2004.91l1.04,257.07c-0.18,16.07,16.93,11.48,19.19,1.8L540.37,2025L503.36,2004.91z"/>
		<path class="st2" d="M560.85,1932.26l-33.18,309.16c0,0-13.11,18.25-28.57-1.51c-6.04-48.98-9.13-94.35,0.67-123.91l0.73-133.23
			l-3.58-53.89L560.85,1932.26z"/>
		<path class="st2" d="M501.01,1945.43l-20.08,138.78c-0.57,3.95-1.75,7.78-3.51,11.37l-53.07,108.61c0,0-23.04,12.58-32.47-13.42
			c14.86-60.58,31.96-97.14,51.01-113.06c0.95-2.1,1.54-4.34,1.76-6.63l13.86-145.54L501.01,1945.43z"/>
		<path class="st2" d="M525.31,2031.93l-53.35-24.45c-12.96-5.94-20.31-19.86-17.9-33.92l5.11-29.75l90.74,45.08L525.31,2031.93z"/>
		<path class="st21" d="M536.37,1786.24c-0.5,17.83-13.45,20.45-26.7,12.3c-13.25-8.15-21.78-23.98-21.29-41.81
			c0.5-17.83,11.64-25.68,24.89-17.53C526.52,1747.35,536.86,1768.41,536.37,1786.24z"/>
		<path class="st21" d="M552.51,1776.47c-0.5,17.83-16.75,28.42-30,20.27c-13.25-8.15-23.59-29.21-23.1-47.04
			c0.5-17.83,11.64-25.68,24.89-17.53S553.01,1758.63,552.51,1776.47z"/>
		<path class="st21" d="M503.5,1839.02l-1.61-0.59c-5.44-1.99-4.97-9.57-2.35-16.71l11.97-40.15c2.61-7.14,9.2-11.35,14.64-9.36
			l1.61,0.59c5.44,1.99,7.74,9.46,5.13,16.6l-9.84,40.27C520.43,1836.81,508.94,1841.01,503.5,1839.02z"/>
		<path class="st2" d="M495.45,1787.54c0,0,3.37,8.85,21.17,6.2c16.96-2.53,8.6-27.19,23.88-33.89c16.8-7.37,13.16-26.64,4.11-33.18
			c-9.05-6.54-29.48-5.92-41.88,3.85C490.33,1740.28,476.08,1748.71,495.45,1787.54z"/>
		
			<ellipse transform="matrix(0.3113 -0.9503 0.9503 0.3113 -1322.3347 1725.2531)" class="st21" cx="529.19" cy="1774.99" rx="7.85" ry="7.85"/>
		<path class="st22" d="M462.71,1858.66l-12.32,98.86c0,0-11.1,11.3,41.86,30.16c42.74,15.23,74.86,11.57,77.71,6.67l-2.56-109.51
			l37.94,26.04c0,0-6.7-53.37-57.1-85.44c-9.18-5.84-22.86-12.99-34.04-18.58c-16.62-8.31-18.05-9.48-34.27-0.41
			C479.45,1806.71,463.88,1842.57,462.71,1858.66z"/>
		
			<ellipse transform="matrix(0.9906 -0.1364 0.1364 0.9906 -234.9335 84.1057)" class="st22" cx="496.06" cy="1755.83" rx="16.68" ry="19.38"/>
		<path class="st8" d="M529.34,1814.65c0,0-15.41-13.45-27.59-12.03C501.76,1802.62,501.62,1818.81,529.34,1814.65z"/>
		<path class="st21" d="M462.1,1838.31L462.1,1838.31c5.93,2.6,8.65,9.57,6.05,15.49l-2.1,4.78c-2.6,5.92-9.57,8.65-15.49,6.05h0
			c-5.93-2.6-8.65-9.57-6.05-15.49l2.1-4.78C449.21,1838.44,456.18,1835.72,462.1,1838.31z"/>
		
			<rect x="562.67" y="2003.01" transform="matrix(0.3261 -0.9453 0.9453 0.3261 -1534.582 1931.5065)" class="st10" width="49.58" height="78.19"/>
		<path class="st23" d="M602.41,1817.39l-54.45,83.01c-7.79,13.91-34.8,18.59-48.74,8.46l-45.61-40.17l15.24-22.11l38.23,26.67
			c0,0,17.17-54.05,32.7-61.81C555.31,1803.68,602.41,1817.39,602.41,1817.39z"/>
		<path class="st2" d="M535.17,2289.1l19.88-3.38c13.11-6.64,19.16-11.46,25.27-8.28l1.73,0.9c6.11,3.18,5.61,9.28-1.09,13.54
			l-28.37,24.62c-6.71,4.27-16.03,3.42-21.72-1.16c0,0-3.42-2.82-1.61-15.41C530.28,2292.75,529.8,2292.51,535.17,2289.1z"/>
		<path class="st2" d="M618.44,2322.39l19.81,3.73c14.6-1.68,21.95-4.1,26.57,1l1.31,1.45c4.62,5.1,2.05,10.65-5.72,12.32
			l-35.15,13.24c-7.77,1.68-16.22-2.36-19.97-8.63c0,0-2.22-3.83,3.84-15.01C612.59,2324.12,612.23,2323.74,618.44,2322.39z"/>
		<path class="st24" d="M632.24,2327.28c0,10.01-24.35,10.01-24.35,0v-32.54h24.35V2327.28z"/>
		<path class="st10" d="M635.31,2306.72c-3.07,12.68-28.39,11.76-33.32,3.56c-5.01-38.48-19.96-94.48-2.61-130.48l-11.17-209.22
			l62.33,0.81C650.99,2083.65,646.71,2195.5,635.31,2306.72z"/>
		<path class="st24" d="M554.15,2292.26c-0.16,9.08-24.49,10.14-24.33,1.06l0.52-29.51l24.33-1.06L554.15,2292.26z"/>
		<path class="st10" d="M558.35,2278.97c-9.28,10.42-28.59,6.98-32.58-0.08c-8.21-46.6-13.23-99.32,0.07-133.68l0.08-160.1
			l61.54,6.4L558.35,2278.97z"/>
		
			<ellipse transform="matrix(0.9587 -0.2845 0.2845 0.9587 -479.2816 243.1843)" class="st21" cx="597.48" cy="1771.43" rx="21.29" ry="37.56"/>
		<path class="st21" d="M637.29,1780.14c-2.14,17.84-19.43,26.96-31.97,17.56c-12.54-9.4-20.97-31.48-18.83-49.33
			c2.14-17.84,14.05-24.69,26.59-15.29C625.62,1742.48,639.43,1762.29,637.29,1780.14z"/>
		<path class="st21" d="M588.56,1836.06l-1.9-0.85c-6.41-2.86-6.07-10.06-3.21-16.47l12.87-36.51c2.86-6.41,10.44-9.31,16.85-6.45
			l1.9,0.85c6.41,2.86,9.31,10.44,6.45,16.85l-10.38,36.99C608.28,1836.88,594.97,1838.92,588.56,1836.06z"/>
		<path class="st2" d="M579.02,1785.98c0,0,2.57,9.2,20.67,8.17c17.25-0.98,11.14-26.48,27.08-31.8
			c17.54-5.84,15.66-25.51,7.19-32.91c-8.47-7.39-29.03-8.66-42.37-0.01C578.24,1738.09,563.16,1745.23,579.02,1785.98z"/>
		
			<ellipse transform="matrix(8.647939e-03 -1 1 8.647939e-03 -1160.1194 2377.3125)" class="st21" cx="618.92" cy="1773.75" rx="7.91" ry="7.91"/>
		<path class="st25" d="M517.71,1984.26c3.61-38.92,2.98-67.33,3.61-109.23c-3.61-106.01,80.98-65.05,85.94-62.5
			c52.5,27.05,56.04,31.69,54.41,62.73c0.24,51.68,2.42,113.68,1.33,139.11C652.17,2050.1,529.71,2009.83,517.71,1984.26z"/>
		<path class="st2" d="M461.08,1770.51c-6,17.83-7.87,66.23,3.79,66.76c38.63,1.75,30.27-35.45,36.27-53.28
			c6-17.83,1.89-35.3-9.17-39.03C480.91,1741.24,467.08,1752.68,461.08,1770.51z"/>
		<path class="st2" d="M408.58,2228.04l-5.74,16.47c-0.44,12.71,0.69,19.31-4.27,22.61l-1.41,0.94c-4.96,3.3-9.37,0.38-9.81-6.48
			l-6.82-31.77c-0.44-6.86,4.1-13.57,9.95-15.98c0,0,3.57-1.41,12.35,5.21C407.85,2222.82,408.23,2222.56,408.58,2228.04z"/>
		<path class="st8" d="M624.29,1820.81c0,0-33.88-22.92-52.77-20.72C571.52,1800.09,581.28,1827.26,624.29,1820.81z"/>
		<path class="st25" d="M657.01,1844.95c0,0,14.85,20.66,16.2,81.63l-36.92,10.22l-5.5-65.19L657.01,1844.95z"/>
		<path class="st23" d="M662.99,2014.36l-12.41-129.43l-23.74-5.96l-9.39,148.55C617.45,2027.53,656.9,2035.99,662.99,2014.36z"/>
		<path class="st21" d="M713.76,2084.12L713.76,2084.12c4.72-1.95,6.98-7.41,5.02-12.12l-5.73-13.85
			c-1.95-4.72-7.41-6.98-12.12-5.02l0,0c-4.72,1.95-6.98,7.41-5.02,12.12l5.73,13.84C703.59,2083.81,709.04,2086.08,713.76,2084.12z
			"/>
		<path class="st25" d="M671.18,1899.23l7.66,71.35l36.26,84.99l-20.73,8.14l-47.03-75.34c-2.45-3.92-4.16-8.26-5.05-12.8
			l-22.22-113.59L671.18,1899.23z"/>
		<path class="st26" d="M580.04,2064.82l-18.29-8.98c-5.25-1.63-9.33,5.89-9.48,11.39c-0.64,23.93-2.28,79.04-3.98,82.02
			c-1.94,3.42-9.85,96.96,0.03,135.52c3.77-0.94,7.33-2.77,10.03-5.8L580.04,2064.82z"/>
	</g>
	<line class="st27" x1="2246.43" y1="1351.94" x2="2246.43" y2="1432.5"/>
	<g>
		<ellipse class="st1" cx="2295.53" cy="1975.92" rx="122.13" ry="65.57"/>
		<g>
			<path class="st2" d="M2295.53,1983.54L2295.53,1983.54c-6.54,0-11.89-5.35-11.89-11.89v-167.82c0-6.54,5.35-11.89,11.89-11.89
				l0,0c6.54,0,11.89,5.35,11.89,11.89v167.82C2307.42,1978.19,2302.07,1983.54,2295.53,1983.54z"/>
			<path class="st14" d="M2403.34,1641.06c0.85-6.37,1.29-12.9,1.29-19.55c0-30.35-9.18-58.2-24.49-80.03
				c2.11-8.77,3.26-18,3.26-27.54c0-56.41-39.34-102.14-87.87-102.14c-48.53,0-87.87,45.73-87.87,102.14
				c0,9.55,1.15,18.78,3.26,27.54c-15.3,21.83-24.49,49.68-24.49,80.03c0,6.65,0.45,13.18,1.29,19.55
				c-26.82,22.89-43.39,54.26-43.39,88.89c0,70.04,67.69,126.81,151.19,126.81c83.5,0,151.19-56.78,151.19-126.81
				C2446.73,1695.32,2430.16,1663.95,2403.34,1641.06z"/>
			<path class="st28" d="M2403.34,1641.06c0.85-6.37,1.29-12.9,1.29-19.55c0-30.35-9.19-58.2-24.49-80.03
				c2.11-8.77,3.26-18,3.26-27.54c0-42.54-22.38-79-54.2-94.36c-33.68,209.98,63.86,305.41-82.78,430.31
				c15.4,4.44,31.91,6.88,49.11,6.88c83.5,0,151.19-56.78,151.19-126.81C2446.73,1695.32,2430.16,1663.95,2403.34,1641.06z"/>
		</g>
	</g>
</g>
</svg>
